# xmcd
#
# Track frame offsets: 
#        150
#        13704
#        27523
#        39851
#        53319
#        67770
#        81015
#        93509
#        108102
#        120362
#        134436
#        147897
#        161026
#        175592
#        189912
#        204716
#        217454
#        231658
#        248010
#        262824
#        278644
#        292014
#
# Disc length: 4070 seconds
#
# Revision: 0
# Processed by: cddbd v1.5.2PL0 Copyright (c) Steve Scherf et al.
# Submitted via: ExactAudioCopy v0.99pb5
#
DISCID=300fe416
DTITLE=Various  - The Slide Guitar: Bottles, Knives and Steel Vol. 2
DYEAR=2008
DGENRE=Blues
TTITLE0=Allen Shaw - Moanin' The Blues
TTITLE1=Sam Collins - Slow Mama Slow
TTITLE2=The Georgia Browns - Decatur Street 81
TTITLE3=Sam Montgomery (King Of Spades) - Where The Sweet Old Oranges 
TTITLE3=Grow
TTITLE4=Sam Montgomery (King Of Spades) - Low In Mind Blues
TTITLE5=Nellie Florence - Midnight Weeping Blues
TTITLE6=Tampa Red and Georgia Tom - Dead Cats On The Line
TTITLE7=Tampa Red - Things About Coming My Way
TTITLE8=The Hokum Boys - Caught Us Doing It
TTITLE9=Helen Humes - Cross-Eyed Blues
TTITLE10=Helen Humes - Alligator Blues
TTITLE11=Buddy Moss - Jealous Hearted Man
TTITLE12=Buddy Moss - Hard Times Blues
TTITLE13=Tampa Red and Georgia Tom - Things About Coming My Way No.2
TTITLE14=Tampa Red and Georgia Tom - No Matter How She Done It
TTITLE15=Walter Beasley - Toad Frog Blues
TTITLE16=Buddy Moss - Hard Road Blues
TTITLE17=Papa Too Sweet - Big Fat Mama
TTITLE18=Tampa Red - Western Bound Blues
TTITLE19=Tampa Red - Sugar Mama Blues No. 1
TTITLE20=Leadbelly - CC Rider
TTITLE21=Robert Johnson - I Believe I'll Dust My Broom
EXTD=
EXTT0=
EXTT1=
EXTT2=
EXTT3=
EXTT4=
EXTT5=
EXTT6=
EXTT7=
EXTT8=
EXTT9=
EXTT10=
EXTT11=
EXTT12=
EXTT13=
EXTT14=
EXTT15=
EXTT16=
EXTT17=
EXTT18=
EXTT19=
EXTT20=
EXTT21=
PLAYORDER=
